<svg xmlns="http://www.w3.org/2000/svg" width="231" height="223" viewBox="0 0 231 223">
  <rect width="100%" height="100%" fill="#000000"/>
  <path d="M230 198 L207 198 L205 200 L205 207 L204 208 L201 208 L200 207 L202 203 L202 200 L199 198 L192 198 L191 197 L189 198 L184 198 L180 200 L176 204 L175 206 L175 210 L174 211 L172 210 L172 208 L168 201 L168 199 L166 198 L156 198 L153 202 L153 204 L149 211 L149 213 L147 216 L147 220 L155 220 L159 216 L162 216 L166 220 L175 220 L177 216 L179 218 L183 220 L185 220 L186 221 L192 221 L195 219 L197 219 L198 220 L202 220 L203 219 L206 219 L207 220 L229 220 L230 219 L230 213 L229 212 L227 212 L225 210 L226 209 L224 207 L226 205 L230 205 Z M187 210 L188 207 L190 205 L196 205 L198 207 L197 208 L191 208 L190 209 L190 211 L191 212 L190 213 L189 213 Z M63 198 L63 202 L71 218 L73 220 L82 220 L84 219 L91 205 L93 206 L92 210 L93 211 L93 214 L95 216 L95 217 L103 221 L111 221 L112 220 L114 220 L118 218 L120 216 L122 212 L122 206 L123 205 L125 206 L125 207 L129 212 L129 218 L131 220 L140 220 L141 219 L141 213 L142 211 L150 201 L150 198 L141 198 L139 199 L139 200 L136 203 L132 199 L132 198 L121 198 L121 201 L120 202 L118 200 L114 198 L109 198 L108 197 L105 197 L104 198 L100 198 L94 203 L93 203 L92 202 L93 201 L93 198 L84 198 L81 203 L81 205 L79 207 L76 204 L76 202 L74 198 Z M106 205 L108 205 L110 207 L110 211 L107 214 L104 211 L104 207 Z M122 156 L122 157 L147 182 L147 192 L148 193 L148 195 L164 195 L164 184 L165 182 L168 179 L169 179 L179 169 L180 169 L191 158 L193 157 L192 155 L172 155 L170 156 L162 164 L161 164 L160 166 L159 166 L157 168 L154 168 L145 159 L145 158 L141 155 L123 155 Z M62 154 L21 154 L22 157 L27 162 L29 166 L29 168 L31 170 L41 170 L42 171 L42 176 L41 177 L41 192 L40 193 L40 197 L39 198 L39 200 L35 204 L31 205 L30 206 L26 206 L22 204 L18 200 L18 198 L17 197 L17 194 L22 184 L23 179 L22 178 L20 178 L19 179 L14 180 L7 184 L1 191 L1 194 L0 195 L0 202 L1 203 L1 207 L3 211 L10 218 L16 221 L20 221 L21 222 L34 222 L35 221 L38 221 L41 219 L43 219 L52 211 L55 205 L56 199 L58 195 L58 187 L59 186 L59 181 L60 180 L60 171 L61 170 L61 165 L62 164 Z M71 164 L67 172 L67 185 L71 193 L73 195 L75 195 L78 199 L80 199 L80 198 L83 195 L116 195 L120 191 L122 187 L122 184 L123 183 L123 175 L122 174 L122 171 L119 165 L116 162 L116 161 L109 156 L105 155 L104 154 L101 154 L100 153 L90 153 L89 154 L85 154 L77 158 Z M82 172 L89 167 L92 167 L93 166 L101 167 L108 173 L109 175 L109 182 L108 184 L103 189 L101 190 L98 190 L97 191 L89 190 L85 188 L82 185 L80 181 L80 176 Z M195 110 L159 110 L159 112 L157 115 L157 117 L156 118 L155 122 L156 123 L172 123 L173 124 L173 127 L171 129 L169 134 L167 136 L165 140 L159 147 L159 149 L174 149 L176 148 L176 147 L182 139 L182 137 L184 135 L188 125 L190 123 L192 123 L195 120 L195 118 L196 117 L196 112 Z M11 110 L11 114 L10 115 L11 116 L11 121 L13 123 L15 123 L18 126 L19 130 L28 146 L31 149 L46 149 L47 148 L46 146 L39 138 L36 132 L34 130 L34 128 L32 126 L32 125 L34 123 L50 123 L50 119 L48 116 L48 114 L46 110 Z M148 82 L146 82 L145 92 L141 99 L132 108 L112 118 L108 122 L107 122 L107 123 L104 126 L102 130 L102 132 L101 133 L101 138 L102 139 L103 144 L108 151 L110 151 L110 149 L112 147 L112 146 L116 143 L120 141 L122 141 L125 139 L127 139 L133 136 L138 132 L139 132 L150 121 L150 120 L152 118 L154 114 L154 112 L155 111 L155 108 L156 107 L156 101 L155 100 L154 93 Z M123 48 L121 48 L122 52 L123 53 L123 55 L124 56 L124 58 L125 59 L125 70 L124 71 L123 76 L119 83 L108 94 L104 96 L97 102 L97 103 L92 109 L91 113 L89 116 L89 128 L91 131 L91 133 L93 137 L97 142 L98 142 L98 132 L99 131 L99 129 L101 125 L104 122 L104 121 L110 116 L120 111 L122 111 L129 105 L130 105 L130 104 L136 97 L138 93 L139 87 L140 86 L140 73 L138 69 L138 66 L136 62 L130 55 L130 54 Z M92 0 L91 0 L87 4 L85 8 L85 10 L83 13 L83 21 L84 22 L85 27 L91 38 L91 43 L92 44 L91 53 L89 56 L89 58 L81 68 L80 68 L76 72 L69 76 L57 88 L56 91 L53 95 L53 97 L51 101 L51 112 L53 115 L53 118 L55 120 L58 126 L65 133 L66 133 L71 137 L79 141 L82 141 L85 143 L91 143 L91 142 L84 138 L80 134 L80 133 L77 130 L75 126 L75 124 L74 123 L74 110 L76 107 L76 105 L78 103 L78 102 L87 93 L89 94 L81 102 L79 106 L78 111 L77 112 L77 117 L79 121 L79 124 L81 126 L82 129 L85 132 L86 132 L86 128 L85 127 L85 117 L86 116 L86 113 L89 107 L96 99 L97 99 L101 95 L105 93 L113 85 L116 79 L118 77 L118 74 L119 73 L119 70 L117 71 L115 75 L106 84 L105 84 L103 86 L101 85 L105 81 L106 81 L115 71 L116 67 L118 64 L118 52 L112 40 L94 22 L94 21 L92 19 L90 15 L90 4 Z M91 91 L92 92 L90 94 L89 94 L88 93 L90 91 Z M91 91 L92 90 L93 91 L92 92 Z M92 90 L93 89 L94 90 L93 91 Z M97 87 L98 88 L96 90 L95 90 L94 89 L96 87 Z M101 85 L102 86 L100 88 L99 88 L98 87 L100 85 Z" fill="#FFFFFF" fill-rule="evenodd"/>
</svg>